<svg xmlns="http://www.w3.org/2000/svg" xmlns:xlink="http://www.w3.org/1999/xlink" width="25" height="25" viewBox="0 0 25 25"><defs><style>.a{fill:url(#a);}.b{fill:#231f20;}</style><linearGradient id="a" x1="-25.456" y1="6.636" x2="-25.449" y2="6.636" gradientUnits="objectBoundingBox"><stop offset="0" stop-color="#faa61a"/><stop offset="1" stop-color="#ffe100"/></linearGradient></defs><path class="a" d="M0,12.466A12.466,12.466,0,1,0,12.466,0,12.443,12.443,0,0,0,0,12.466"/><path class="b" d="M4.7,4.274a106.7,106.7,0,0,1,18.623,0,12.279,12.279,0,0,0-18.623,0Z" transform="translate(-1.511)"/><path class="b" d="M23.394,30.8A125.437,125.437,0,0,1,4.5,30.8a12.269,12.269,0,0,0,9.414,4.41,12.407,12.407,0,0,0,9.48-4.41Z" transform="translate(-1.447 -10.21)"/><path class="b" d="M.4,13.852c8.11-.136,16.019-.136,24.2,0a12.29,12.29,0,0,1,.067,5.97c-8.244.2-16.287.2-24.4,0A17.784,17.784,0,0,1,0,17.04a12.6,12.6,0,0,1,.4-3.189Z" transform="translate(0 -4.571)"/></svg>