<svg xmlns="http://www.w3.org/2000/svg" width="23.067" height="24.694" viewBox="0 0 23.067 24.694"><defs><style>.a{fill:#333;stroke:#333;stroke-width:0.3px;}</style></defs><path class="a" d="M25.518,26.767H9.249a1.624,1.624,0,0,1-1.623-1.623V14.571H27.141V25.144A1.625,1.625,0,0,1,25.518,26.767ZM11.692,8.879v2.439h1.626V8.879h8.131v2.439h1.628V8.879h4.064v4.066H7.626V8.879ZM23.077,7.252V4H21.449V7.252H13.318V4H11.692V7.252H6V25.144a3.253,3.253,0,0,0,3.249,3.249H25.518a3.252,3.252,0,0,0,3.249-3.249V7.252Z" transform="translate(-5.85 -3.85)"/></svg>