<svg xmlns="http://www.w3.org/2000/svg" width="30.608" height="24.545" viewBox="0 0 30.608 24.545"><defs><style>.a{fill:#fefefe;}.a,.b,.c,.d,.e,.f,.g,.h,.i,.j{fill-rule:evenodd;}.b{fill:#ab2d30;}.c{fill:#983439;}.d{fill:#a02f34;}.e{fill:#ac312b;}.f{fill:#9b3136;}.g{fill:#fac1c4;}.h{fill:#f9caca;}.i{fill:#b22c33;}.j{fill:#a92f3b;}</style></defs><g transform="translate(-6.282 -10.207)"><path class="a" d="M206.032,286.642a35.12,35.12,0,0,1,5.206.127,24.131,24.131,0,0,1,3.307.554,1.557,1.557,0,0,1,.868.4,1.451,1.451,0,0,1,.277,1.014q0,4.922,0,9.847a1.4,1.4,0,0,1-.29.969,1.312,1.312,0,0,1-.688.349,28.922,28.922,0,0,1-6.8.763,32.744,32.744,0,0,1-6.556-.613,2.967,2.967,0,0,1-1.256-.427,1.274,1.274,0,0,1-.388-1V288.9a1.686,1.686,0,0,1,.261-1.129,1.483,1.483,0,0,1,.9-.45,29.979,29.979,0,0,1,5.167-.678Zm-.864.926a2.975,2.975,0,0,0-.385.039.5.5,0,0,0-.1,0c-.822.075-1.641.179-2.456.323-.453.081-.907.163-1.35.284a.329.329,0,0,0-.284.261,1.711,1.711,0,0,0-.013.29v9.886c.007.108-.01.248.1.316a1.011,1.011,0,0,0,.349.121c.267.059.532.124.8.163h0c.457.1.926.17,1.39.235.985.13,1.973.232,2.968.264a2.2,2.2,0,0,0,.254.019,32.2,32.2,0,0,0,4.087-.088,25.27,25.27,0,0,0,3.562-.522v-.01a4.785,4.785,0,0,0,.515-.121.425.425,0,0,0,.16-.114c.016-.065.033-.134.049-.2q0-4.335,0-8.673c0-.528.01-1.057-.007-1.589a.3.3,0,0,0-.225-.222c-.16-.042-.32-.082-.479-.114a24.257,24.257,0,0,0-3.131-.5.583.583,0,0,0-.2,0c-.013-.052-.117-.042-.153-.016a.429.429,0,0,0-.212-.026,1.43,1.43,0,0,0-.166-.02,34.325,34.325,0,0,0-5.082.01Zm5.858,2.13a1.34,1.34,0,0,0,1.119,2.332,1.352,1.352,0,0,0,.975-.786,1.332,1.332,0,0,0,.065-.871,1.324,1.324,0,0,0-1.266-.991,1.318,1.318,0,0,0-.894.316Zm-6.2,14.152a.689.689,0,0,1,.444-.007.576.576,0,0,1,.3.31c.5,1.024,1,2.052,1.5,3.079.173-.29.307-.6.463-.9.307-.616.62-1.233.93-1.846a2.048,2.048,0,0,1,.346-.558.465.465,0,0,1,.421-.1.506.506,0,0,1,.375.528c0,1.513,0,3.024,0,4.534a.956.956,0,0,1-.055.44.507.507,0,0,1-.466.264.5.5,0,0,1-.47-.476c0-1.011,0-2.022,0-3.033a.3.3,0,0,1-.108.114c-.062.029.029.088-.016.13q-.455.988-.9,1.977a.657.657,0,0,1-.218.3.531.531,0,0,1-.6.013,1.065,1.065,0,0,1-.31-.483q-.479-1.042-.949-2.088c0,1.037,0,2.071,0,3.108a.5.5,0,0,1-.444.43.5.5,0,0,1-.532-.395c.02-.417,0-.835.007-1.253.007-1.217,0-2.433,0-3.65,0-.023-.007-.068-.01-.091a.522.522,0,0,1,.294-.356Zm-4.071.01a2.477,2.477,0,0,1,1.478.205,2.434,2.434,0,0,1,1.031,1.083,3.488,3.488,0,0,1,.3,1.983,2.8,2.8,0,0,1-1.05,1.9,2.275,2.275,0,0,1-1.549.408,2.133,2.133,0,0,1-1.318-.568,2.808,2.808,0,0,1-.822-1.517,3.659,3.659,0,0,1,.117-1.856,2.7,2.7,0,0,1,.864-1.23,2.09,2.09,0,0,1,.952-.408Zm-.525,1.266a2.188,2.188,0,0,0-.479,1.416,2.487,2.487,0,0,0,.362,1.474,1.215,1.215,0,0,0,.855.519,1.274,1.274,0,0,0,1.142-.369c.052.049.13-.046.078-.091a.821.821,0,0,0,.14-.206,2.692,2.692,0,0,0,.258-1.523,2.064,2.064,0,0,0-.5-1.239,1.315,1.315,0,0,0-1.853.02Zm16.122-1.135a1.692,1.692,0,0,1,.985-.072.721.721,0,0,1,.541.411.778.778,0,0,1-.108.724.6.6,0,0,1-.584.258,1.84,1.84,0,0,0-.995.02.738.738,0,0,0-.486.587c.007.988.007,1.98,0,2.968a.7.7,0,0,1-.359.613.761.761,0,0,1-.548.072.721.721,0,0,1-.538-.685c-.007-1.337.007-2.675-.007-4.012a1.515,1.515,0,0,1,.114-.711.562.562,0,0,1,.463-.248.89.89,0,0,1,.633.166.828.828,0,0,1,.235.473,1.988,1.988,0,0,1,.656-.564Zm2.2.232a.7.7,0,0,1,.607-.352.734.734,0,0,1,.744.718c0,.913,0,1.823,0,2.737a.927.927,0,0,0,.183.636.852.852,0,0,0,.636.183,1.034,1.034,0,0,0,.828-.447c0-1,0-2.009,0-3.011a.835.835,0,0,1,.075-.408.731.731,0,0,1,.695-.4.718.718,0,0,1,.678.714c0,1.314,0,2.632,0,3.947a1.4,1.4,0,0,1-.192.851.634.634,0,0,1-.558.176.677.677,0,0,1-.489-.2,1.041,1.041,0,0,1-.183-.571,1.78,1.78,0,0,1-2.531.4,1.126,1.126,0,0,1-.359-.414,2.733,2.733,0,0,1-.241-1.226v-2.772a2.918,2.918,0,0,1,.01-.339,1.376,1.376,0,0,1,.095-.222Zm-24.769-.166a1.175,1.175,0,0,1,.489-.072h2.671a.452.452,0,0,1,.4.176.747.747,0,0,1,.082.355c0,1.341,0,2.681,0,4.022.2,0,.4,0,.6.007a.326.326,0,0,1,.281.124.608.608,0,0,1,.062.349c0,.545,0,1.089,0,1.634a.432.432,0,0,1-.238.421,1.361,1.361,0,0,1-.326,0,.488.488,0,0,1,.006-.069l-.013.065a.5.5,0,0,1-.222-.15.645.645,0,0,1-.088-.4c0-.378,0-.757,0-1.135q-2.114-.01-4.227,0c0,.447.01.89-.007,1.337a.4.4,0,0,1-.267.336.429.429,0,0,1-.6-.444v-1.7a.381.381,0,0,1,.15-.349c.16-.065.339-.007.506-.052a.449.449,0,0,0,.215-.189,1.645,1.645,0,0,0,.2-.519,4.154,4.154,0,0,0,.121-1.044v-1.892a2.893,2.893,0,0,1,.029-.558.351.351,0,0,1,.17-.258Zm.793.891a3.011,3.011,0,0,0-.016.421v1.468a5.742,5.742,0,0,1-.072.946,3.728,3.728,0,0,1-.14.594c-.026.052-.049.108-.072.166.7-.01,1.406.007,2.107-.01.01,0,.033.007.046.007.007-1.236,0-2.472,0-3.712-.535-.006-1.07,0-1.6,0-.095,0-.232.01-.251.124Zm17.062,2.658c.033.065.078,0,.111-.026a.944.944,0,1,1-.036,1.866.97.97,0,0,1-.6-.372.96.96,0,0,1-.095-.965A.947.947,0,0,1,211.639,307.6Z" transform="translate(-186.113 -276.392)"/><path class="b" d="M572.585,313.345a34.654,34.654,0,0,1,5.072-.013,1.441,1.441,0,0,1,.166.02,2.338,2.338,0,0,1-.639,0c-.111-.007-.218.042-.329.033s-.215-.02-.323-.023c.065-.013.134-.026.2-.042a6.353,6.353,0,0,0-.789-.016c-.643.029-1.282-.026-1.924,0-.359.046-.718.036-1.076.075a2.709,2.709,0,0,1-.744.013,2.95,2.95,0,0,1,.385-.039Zm13.285,16.723a.077.077,0,0,1,.1-.069,1.246,1.246,0,0,0-.091.215,1.2,1.2,0,0,0-.026.4c0,1,.01,2-.006,3a.7.7,0,0,1-.062-.254c.033-.479.006-.962.016-1.445v-1.08c0-.127-.062-.251-.023-.375S585.841,330.2,585.87,330.068Z" transform="translate(-553.53 -302.169)"/><path class="c" d="M751.1,316.57c.039-.026.143-.036.153.016A.153.153,0,0,1,751.1,316.57Z" transform="translate(-726.595 -305.364)"/><path class="d" d="M276.079,333.013c.046-.007.088-.01.134-.013.16.033.32.072.479.114a.3.3,0,0,1,.225.222c-.117-.016-.176-.127-.267-.183a.7.7,0,0,1-.284-.088.968.968,0,0,1-.287-.052Zm-1.341,1.445a.391.391,0,0,1,.31.2c.1.189.3.369.248.6a1.418,1.418,0,0,0-.538-.763l-.019-.039Zm-10.8,9.677a.442.442,0,0,1,.235-.006c.245.065.5.078.74.147a1.88,1.88,0,0,0,.541-.013c-.042.036-.085.072-.124.108-.466-.065-.933-.13-1.393-.235Zm6.142.489a17,17,0,0,0,1.826-.062c.245,0,.486-.023.731,0a32.229,32.229,0,0,1-4.087.088,1.693,1.693,0,0,1-.254-.02,2.437,2.437,0,0,1,.378-.02c.47.02.936.01,1.406.013Zm-13.4,5.209a.27.27,0,0,1,.046.16c0,.522,0,1.044,0,1.566.013.4-.046.8-.03,1.2a.625.625,0,0,0-.033-.069c-.023-.007-.046-.016-.069-.023a5.749,5.749,0,0,0,.072-.946c0-.489,0-.979,0-1.468A3.027,3.027,0,0,1,256.688,349.834Z" transform="translate(-248.224 -321.279)"/><path class="e" d="M443.12,336.361a.33.33,0,0,1,.284-.261c-.023.147-.232.173-.228.326s-.007.28-.016.421V346.4a.681.681,0,0,0,.13.453,1.917,1.917,0,0,1,.333.088c.095.033.2-.016.29.039.137.078.32.036.437.153-.271-.039-.535-.1-.8-.163a.928.928,0,0,1-.349-.121c-.1-.065-.091-.209-.1-.316v-9.886C443.107,336.554,443.107,336.456,443.12,336.361Z" transform="translate(-428.641 -324.278)"/><path class="f" d="M572.552,658.1c.042-.078.023-.209.147-.206a1.945,1.945,0,0,1-.049.2.463.463,0,0,1-.16.114,4.728,4.728,0,0,1-.516.121c0-.016,0-.046,0-.059a1.665,1.665,0,0,0,.581-.17Zm-10.007,4.964a.133.133,0,0,1,.166-.026.5.5,0,0,0-.287.349,2.288,2.288,0,0,0-.019.447v3.979a4.805,4.805,0,0,0,.016.571.5.5,0,0,0,.532.395.506.506,0,0,0,.444-.431,1.41,1.41,0,0,0,.026-.4c0-.77,0-1.539,0-2.312a1.871,1.871,0,0,1,.006.486c.006.568,0,1.132,0,1.7a2.61,2.61,0,0,0,.016.45c.029.108-.042.2-.082.3a.532.532,0,0,1-.251.235,1.378,1.378,0,0,1-.385.01c-.091-.042-.176-.108-.264-.156a1.494,1.494,0,0,1-.121-.264c-.01-.095.026-.186.023-.28V663.9a3.993,3.993,0,0,1-.007-.558C562.369,663.225,562.477,663.153,562.545,663.068Z" transform="translate(-543.999 -635.58)"/><path class="g" d="M564.024,826.747a2.044,2.044,0,0,1,.019-.447c0,.023.007.068.01.091-.01,1.216,0,2.433,0,3.65,0,.418.01.835-.007,1.252a4.764,4.764,0,0,1-.016-.571Q564.022,828.737,564.024,826.747Z" transform="translate(-545.618 -798.489)"/><path class="h" d="M490,944.991a.523.523,0,0,1,.078-.091C490.134,944.946,490.052,945.04,490,944.991Z" transform="translate(-474.011 -913.221)"/><path class="i" d="M250.172,947.719a1.793,1.793,0,0,0,.088-.219,1.789,1.789,0,0,0,.01.264.792.792,0,0,0,.382.042,12.779,12.779,0,0,0,1.367-.033.242.242,0,0,1,.189.1c-.7.016-1.406,0-2.107.01C250.123,947.829,250.146,947.774,250.172,947.719Z" transform="translate(-241.936 -915.736)"/><path class="j" d="M218.81,985.055q2.114-.01,4.227,0c0,.379,0,.757,0,1.135a.646.646,0,0,0,.088.4.458.458,0,0,0,.222.15l.013-.065a.547.547,0,0,1-.007.069,1.359,1.359,0,0,0,.326,0,.456.456,0,0,1-.307.069.605.605,0,0,1-.336-.248.854.854,0,0,1-.059-.433c0-.336,0-.669-.007-1a.235.235,0,0,1-.042-.02c-1.337.02-2.675-.007-4.012.013a1.12,1.12,0,0,0-.068.326c0,.32,0,.64,0,.959l-.049-.007C218.823,985.949,218.807,985.5,218.81,985.055Z" transform="translate(-211.657 -952.061)"/></g></svg>