<svg xmlns="http://www.w3.org/2000/svg" width="112.798" height="28.73" viewBox="0 0 112.798 28.73"><defs><style>.a{fill:#101828;}.b{fill:#ff4f12;}.c{fill:#70f;}</style></defs><g transform="translate(0)"><path class="a" d="M424.988,240.58l3.925,4.459h-2.551l-3.034-3.436v3.436h-2.115v-8.315h2.115v3.017l2.982-3.017h2.5Zm-63.224-1.609c1.54,0,2.247-.735,2.247-1.844s-.707-1.844-2.247-1.844h-3.051v3.689h3.051m.069-5.671c2.649,0,4.4,1.356,4.4,3.821s-1.747,3.821-4.4,3.821h-3.12v4.091H356.5V233.3h5.332m9.389,10a2.413,2.413,0,1,0-2.4-2.413,2.337,2.337,0,0,0,2.4,2.413m0-6.809a4.4,4.4,0,1,1-4.545,4.4,4.3,4.3,0,0,1,4.545-4.4m9.941,6.809a2.194,2.194,0,0,1-2.212-2.413,2.222,2.222,0,0,1,2.212-2.413,2.247,2.247,0,0,1,1.931,1.138l1.81-1.04a3.837,3.837,0,0,0-3.723-2.08,4.285,4.285,0,0,0-4.379,4.4,4.226,4.226,0,0,0,4.379,4.4,4.124,4.124,0,0,0,3.8-2.229l-1.747-.954a2.356,2.356,0,0,1-2.074,1.2m22.5-1.862c-.1,1.276-.351,1.557-.787,1.557a2.207,2.207,0,0,1-.644-.086l.012,2.155a2.82,2.82,0,0,0,.747.08c1.793,0,2.465-1.155,2.632-3.62l.2-2.9H408.2v6.407h2.115v-8.3h-6.3Zm-3.9-1.661A2.024,2.024,0,0,0,397.6,238.1a2.346,2.346,0,0,0-2.247,1.678Zm-2.092-3.287a3.947,3.947,0,0,1,4.057,4.16v.735h-6.407a2.2,2.2,0,0,0,2.281,2.08,2.392,2.392,0,0,0,2.115-1.138l1.678.839a4.005,4.005,0,0,1-3.821,2.115,4.4,4.4,0,0,1,.1-8.792m20.3,3.287a2.024,2.024,0,0,0-2.16-1.678,2.346,2.346,0,0,0-2.247,1.678Zm-2.092-3.287a3.947,3.947,0,0,1,4.057,4.16v.735h-6.407a2.2,2.2,0,0,0,2.281,2.08,2.392,2.392,0,0,0,2.115-1.138l1.678.839a4.005,4.005,0,0,1-3.821,2.115,4.4,4.4,0,0,1,.1-8.792m-30.236,2.08h2.482v6.47h2.115v-6.47h2.482v-1.844h-7.079Zm47.468,4.729a2.413,2.413,0,1,0-2.4-2.413,2.337,2.337,0,0,0,2.4,2.413m0-6.809a4.4,4.4,0,1,1-4.545,4.4,4.3,4.3,0,0,1,4.545-4.4m12.952.23-2.293,5.827-2.293-5.827h-2.764v8.3h2.005v-5.258l2.224,5.258h1.638l2.224-5.258v5.258h2.011v-8.3Z" transform="translate(-336.014 -219.894)"/><g transform="translate(0)"><path class="b" d="M24.367,376.433H12.645a1.392,1.392,0,0,1-1.345-1.419,1.416,1.416,0,0,1,.414-1l5.114-5.114Z" transform="translate(-10.649 -347.703)"/><path class="c" d="M1.966,28.73A2.037,2.037,0,0,1-.028,26.616V10.854c0-2.132-.109-3.626,1.414-5.148L7.091,0,17.21,10.136,1.035,26.311a1.419,1.419,0,0,0,.931,2.419Z" transform="translate(0.03)"/></g></g></svg>