<svg xmlns="http://www.w3.org/2000/svg" width="22" height="22" viewBox="0 0 22 22"><defs><style>.a{fill:#444189;}.b{fill:#fff;stroke:#fff;}</style></defs><g transform="translate(-807.25 -292)"><g transform="translate(807.25 292)"><circle class="a" cx="11" cy="11" r="11"/><g transform="translate(4.346 4.844)"><path class="b" d="M14.24,8.391V7.8a5.8,5.8,0,0,0-9.9-4.1l.515.515A5.073,5.073,0,0,1,13.515,7.8v.594l-.428-.8-.66.413L13.6,9.246h.551L15.327,8l-.66-.413Z" transform="translate(-1.557 -1.993)"/><path class="b" d="M7.385,14.523A5.073,5.073,0,0,1,2.312,9.45V8.855l.428.8.66-.413L2.225,8H1.674L.5,9.247l.66.413.428-.8V9.45a5.8,5.8,0,0,0,9.9,4.1l-.515-.515A5.073,5.073,0,0,1,7.385,14.523Z" transform="translate(-0.5 -3.647)"/></g></g></g></svg>